#Comment line ignore any data following # character 
#Hierarchical Translation and Rotation (.htr) file 
[Header]	
#Header keywords are followed by a single value 
FileType HTR		#Single word string
DataType HTRS		#Translation followed by rotation and scale data
FileVersion 1		#integer
NumSegments 64		#integer
NumFrames 3		#integer
DataFrameRate 30		#integer, data frame rate in this file
EulerRotationOrder ZYX
CalibrationUnits mm
RotationUnits Degrees
GlobalAxisofGravity Y
BoneLengthAxis Y
ScaleFactor 1.00
[SegmentNames&Hierarchy]
#CHILD	PARENT
Pinger_Root GLOBAL
Pelvis Pinger_Root
L_Hip Pelvis
R_Hip Pelvis
Rear_Leg01 Pelvis
Spine1 Pelvis
L_Leg01 L_Hip
L_Leg02 L_Leg01
L_Leg03 L_Leg02
L_Foot L_Leg03
L_Toe1_01 L_Foot
L_Toe2_01 L_Foot
L_Toe3_01 L_Foot
planeAlignerLeft L_Foot
L_Toe1_02 L_Toe1_01
L_Toe1_03 L_Toe1_02
L_Toe2_02 L_Toe2_01
L_Toe2_03 L_Toe2_02
L_Toe3_02 L_Toe3_01
L_Toe3_03 L_Toe3_02
planeLockWeightLeft planeAlignerLeft
R_Leg01 R_Hip
R_Leg02 R_Leg01
R_Leg03 R_Leg02
R_Foot R_Leg03
planeAlignerRight R_Foot
R_Toe1_01 R_Foot
R_Toe2_01 R_Foot
R_Toe3_01 R_Foot
planeLockWeightRight planeAlignerRight
R_Toe1_02 R_Toe1_01
R_Toe1_03 R_Toe1_02
R_Toe2_02 R_Toe2_01
R_Toe2_03 R_Toe2_02
R_Toe3_02 R_Toe3_01
R_Toe3_03 R_Toe3_02
Rear_Leg02 Rear_Leg01
Rear_Leg03 Rear_Leg02
Rear_Leg04 Rear_Leg03
Rear_Foot Rear_Leg04
planeAlignerCenter Rear_Foot
Rear_Toe1_01 Rear_Foot
Rear_Toe2_01 Rear_Foot
Rear_Toe3_01 Rear_Foot
planeLockWeightCenter planeAlignerCenter
Rear_Toe1_02 Rear_Toe1_01
Rear_Toe1_03 Rear_Toe1_02
Rear_Toe2_02 Rear_Toe2_01
Rear_Toe2_03 Rear_Toe2_02
Rear_Toe3_02 Rear_Toe3_01
Rear_Toe3_03 Rear_Toe3_02
Back_Bone Spine1
Head Spine1
Motor_Bone Back_Bone
Ping_Mechanism Back_Bone
BN_LookIK Head
bottomMouth Head
L_Mouth01 Head
L_mouthFront Head
mouthGun Head
R_Mouth01 Head
R_mouthFront Head
TopMouth Head
weapon_bone Head
[BasePosition]
#SegmentName Tx, Ty, Tz, Rx, Ry, Rz, BoneLength
Pinger_Root 0.000000 0.000000 0.000000 -90.000000 0.000000 0.000000 10.000000 
Pelvis 0.000000 0.000000 0.000000 0.000000 0.000000 0.000000 10.000000 
L_Hip 0.000000 0.000000 0.000000 0.000000 0.000000 0.000000 10.000000 
R_Hip 0.000000 0.000000 0.000000 0.000000 0.000000 0.000000 10.000000 
Rear_Leg01 0.000000 0.000000 0.000000 0.000000 0.000000 0.000000 10.000000 
Spine1 0.000000 0.000000 0.000000 0.000000 0.000000 0.000000 10.000000 
L_Leg01 0.000000 0.000000 0.000000 0.000000 0.000000 0.000000 10.000000 
L_Leg02 0.000000 0.000000 0.000000 0.000000 0.000000 0.000000 10.000000 
L_Leg03 0.000000 0.000000 0.000000 0.000000 0.000000 0.000000 10.000000 
L_Foot 0.000000 0.000000 0.000000 0.000000 0.000000 0.000000 10.000000 
L_Toe1_01 0.000000 0.000000 0.000000 0.000000 0.000000 0.000000 10.000000 
L_Toe2_01 0.000000 0.000000 0.000000 0.000000 0.000000 0.000000 10.000000 
L_Toe3_01 0.000000 0.000000 0.000000 0.000000 0.000000 0.000000 10.000000 
planeAlignerLeft 0.000000 0.000000 0.000000 0.000000 0.000000 0.000000 10.000000 
L_Toe1_02 0.000000 0.000000 0.000000 0.000000 0.000000 0.000000 10.000000 
L_Toe1_03 0.000000 0.000000 0.000000 0.000000 0.000000 0.000000 10.000000 
L_Toe2_02 0.000000 0.000000 0.000000 0.000000 0.000000 0.000000 10.000000 
L_Toe2_03 0.000000 0.000000 0.000000 0.000000 0.000000 0.000000 10.000000 
L_Toe3_02 0.000000 0.000000 0.000000 0.000000 0.000000 0.000000 10.000000 
L_Toe3_03 0.000000 0.000000 0.000000 0.000000 0.000000 0.000000 10.000000 
planeLockWeightLeft 0.000000 0.000000 0.000000 0.000000 0.000000 0.000000 10.000000 
R_Leg01 0.000000 0.000000 0.000000 0.000000 0.000000 0.000000 10.000000 
R_Leg02 0.000000 0.000000 0.000000 0.000000 0.000000 0.000000 10.000000 
R_Leg03 0.000000 0.000000 0.000000 0.000000 0.000000 0.000000 10.000000 
R_Foot 0.000000 0.000000 0.000000 0.000000 0.000000 0.000000 10.000000 
planeAlignerRight 0.000000 0.000000 0.000000 0.000000 0.000000 0.000000 10.000000 
R_Toe1_01 0.000000 0.000000 0.000000 0.000000 0.000000 0.000000 10.000000 
R_Toe2_01 0.000000 0.000000 0.000000 0.000000 0.000000 0.000000 10.000000 
R_Toe3_01 0.000000 0.000000 0.000000 0.000000 0.000000 0.000000 10.000000 
planeLockWeightRight 0.000000 0.000000 0.000000 0.000000 0.000000 0.000000 10.000000 
R_Toe1_02 0.000000 0.000000 0.000000 0.000000 0.000000 0.000000 10.000000 
R_Toe1_03 0.000000 0.000000 0.000000 0.000000 0.000000 0.000000 10.000000 
R_Toe2_02 0.000000 0.000000 0.000000 0.000000 0.000000 0.000000 10.000000 
R_Toe2_03 0.000000 0.000000 0.000000 0.000000 0.000000 0.000000 10.000000 
R_Toe3_02 0.000000 0.000000 0.000000 0.000000 0.000000 0.000000 10.000000 
R_Toe3_03 0.000000 0.000000 0.000000 0.000000 0.000000 0.000000 10.000000 
Rear_Leg02 0.000000 0.000000 0.000000 0.000000 0.000000 0.000000 10.000000 
Rear_Leg03 0.000000 0.000000 0.000000 0.000000 0.000000 0.000000 10.000000 
Rear_Leg04 0.000000 0.000000 0.000000 0.000000 0.000000 0.000000 10.000000 
Rear_Foot 0.000000 0.000000 0.000000 0.000000 0.000000 0.000000 10.000000 
planeAlignerCenter 0.000000 0.000000 0.000000 0.000000 0.000000 0.000000 10.000000 
Rear_Toe1_01 0.000000 0.000000 0.000000 0.000000 0.000000 0.000000 10.000000 
Rear_Toe2_01 0.000000 0.000000 0.000000 0.000000 0.000000 0.000000 10.000000 
Rear_Toe3_01 0.000000 0.000000 0.000000 0.000000 0.000000 0.000000 10.000000 
planeLockWeightCenter 0.000000 0.000000 0.000000 0.000000 0.000000 0.000000 10.000000 
Rear_Toe1_02 0.000000 0.000000 0.000000 0.000000 0.000000 0.000000 10.000000 
Rear_Toe1_03 0.000000 0.000000 0.000000 0.000000 0.000000 0.000000 10.000000 
Rear_Toe2_02 0.000000 0.000000 0.000000 0.000000 0.000000 0.000000 10.000000 
Rear_Toe2_03 0.000000 0.000000 0.000000 0.000000 0.000000 0.000000 10.000000 
Rear_Toe3_02 0.000000 0.000000 0.000000 0.000000 0.000000 0.000000 10.000000 
Rear_Toe3_03 0.000000 0.000000 0.000000 0.000000 0.000000 0.000000 10.000000 
Back_Bone 0.000000 0.000000 0.000000 0.000000 0.000000 0.000000 10.000000 
Head 0.000000 0.000000 0.000000 0.000000 0.000000 0.000000 10.000000 
Motor_Bone 0.000000 0.000000 0.000000 0.000000 0.000000 0.000000 10.000000 
Ping_Mechanism 0.000000 0.000000 0.000000 0.000000 0.000000 0.000000 10.000000 
BN_LookIK 0.000000 0.000000 0.000000 0.000000 0.000000 0.000000 10.000000 
bottomMouth 0.000000 0.000000 0.000000 0.000000 0.000000 0.000000 10.000000 
L_Mouth01 0.000000 0.000000 0.000000 0.000000 0.000000 0.000000 10.000000 
L_mouthFront 0.000000 0.000000 0.000000 0.000000 0.000000 0.000000 10.000000 
mouthGun 0.000000 0.000000 0.000000 0.000000 0.000000 0.000000 10.000000 
R_Mouth01 0.000000 0.000000 0.000000 0.000000 0.000000 0.000000 10.000000 
R_mouthFront 0.000000 0.000000 0.000000 0.000000 0.000000 0.000000 10.000000 
TopMouth 0.000000 0.000000 0.000000 0.000000 0.000000 0.000000 10.000000 
weapon_bone 0.000000 0.000000 0.000000 0.000000 0.000000 0.000000 10.000000 
#Beginning of Data. Separated by tabs
#Fr	Tx	Ty	Tz	Rx	Ry	Rz	SF
[Pinger_Root]
12 0.000000 0.000000 0.000000 -0.000075 -0.000000 -0.000020 0.000000
13 0.000000 0.000000 0.000000 -0.000075 -0.000000 -0.000020 0.000000
14 0.000000 0.000000 0.000000 -0.000075 -0.000000 -0.000020 0.000000
[Pelvis]
12 -262.799072 2168.384521 4139.721191 -125.675179 -71.800217 105.145218 4680.624512
13 -267.857666 2163.062012 3831.406494 -117.498886 -75.836769 98.217430 4407.977051
14 -267.771759 2121.673584 3520.669189 -104.499001 -79.673889 86.568207 4119.261230
[L_Hip]
12 5.766392 125.831482 872.656799 165.212830 -46.277447 119.155807 881.701050
13 5.766392 125.831482 872.656799 172.961731 -43.422871 113.649788 881.701050
14 5.766392 125.831482 872.656799 172.961731 -43.422859 113.649780 881.701050
[R_Hip]
12 5.765438 125.836372 -872.654907 -39.609253 67.267662 34.846443 881.699829
13 5.765438 125.836372 -872.654907 -71.055466 66.021523 4.308295 881.699829
14 5.765438 125.836372 -872.654907 -75.055183 65.992950 0.367698 881.699829
[Rear_Leg01]
12 -192.298416 -925.602966 -0.001907 160.646057 13.817251 -151.661423 945.367432
13 -192.298416 -925.602966 -0.001907 164.899765 17.276552 -145.888229 945.367432
14 -192.298416 -925.602966 -0.001907 169.750397 20.117523 -139.262955 945.367432
[Spine1]
12 290.604584 5.007505 0.000477 15.743905 -6.943073 24.175314 290.647736
13 290.604584 5.007505 0.000477 14.013210 -10.663317 27.008543 290.647736
14 290.604584 5.007505 0.000477 10.774754 -13.093876 30.349754 290.647736
[L_Leg01]
12 761.932007 -0.002384 -0.069261 42.000900 25.204039 -32.750813 761.932068
13 761.932007 -0.002384 -0.069261 38.798401 25.301682 -40.186146 761.932068
14 761.932007 -0.002384 -0.069261 42.842953 20.875366 -36.393520 761.932068
[L_Leg02]
12 1441.140503 -0.000954 -0.000715 5.442835 1.066393 -82.650391 1441.140503
13 1441.140503 -0.000954 -0.000715 6.809328 2.230384 -90.252068 1441.140503
14 1441.140503 -0.000954 -0.000715 8.173612 4.421399 -109.456581 1441.140503
[L_Leg03]
12 1686.963989 -0.000715 -0.000954 -0.095624 0.055276 135.505020 1686.963989
13 1686.963989 -0.000715 -0.000954 -0.111814 0.068815 140.989258 1686.963989
14 1686.963989 -0.000715 -0.000954 -0.142520 0.091446 148.268234 1686.963989
[L_Foot]
12 3041.570068 -30.715107 11.297464 -22.377470 42.274120 29.727488 3041.746094
13 3041.570068 -30.715107 11.297464 -23.469921 43.031483 30.993309 3041.746094
14 3041.570068 -30.715107 11.297464 -23.992002 42.679546 36.072010 3041.746094
[L_Toe1_01]
12 -188.216690 -224.732346 -21.137953 94.188042 -7.473626 179.916870 293.899567
13 -188.216690 -224.732346 -21.137953 94.188156 -7.475219 179.916611 293.899567
14 -188.216690 -224.732346 -21.137953 94.188286 -7.476813 179.916336 293.899567
[L_Toe2_01]
12 200.746536 -219.926590 148.838394 -98.197838 -36.329163 -34.724487 332.896027
13 200.746536 -219.926590 148.838394 -98.195602 -36.450459 -34.764084 332.896027
14 200.746536 -219.926590 148.838394 -98.193222 -36.571735 -34.803730 332.896027
[L_Toe3_01]
12 188.832520 -219.859131 -191.078659 -96.723816 25.108372 -61.433517 347.140900
13 188.832520 -219.859131 -191.078659 -96.715034 25.094406 -61.459293 347.140900
14 188.832520 -219.859131 -191.078659 -96.706230 25.080442 -61.485062 347.140900
[planeAlignerLeft]
12 0.812531 -811.448792 -0.314951 0.000000 -90.000000 -90.001900 811.449280
13 0.812531 -811.448792 -0.314951 0.000000 -90.000000 -90.001900 811.449280
14 0.812531 -811.448792 -0.314951 0.000000 -90.000000 -90.001900 811.449280
[L_Toe1_02]
12 413.761139 0.000477 0.000000 0.001661 0.070279 0.001661 413.761139
13 413.761139 0.000477 0.000000 0.001661 0.070156 0.001661 413.761139
14 413.761139 0.000477 0.000000 0.001661 0.070032 0.001661 413.761139
[L_Toe1_03]
12 464.317322 0.000358 -0.000089 0.001673 -0.448396 -0.003292 464.317322
13 464.317322 0.000358 -0.000089 0.001673 -0.448396 -0.003292 464.317322
14 464.317322 0.000358 -0.000089 0.001673 -0.448396 -0.003292 464.317322
[L_Toe2_02]
12 342.235809 -0.000477 0.000238 0.004684 -81.203911 0.004684 342.235809
13 342.235809 -0.000477 0.000238 0.004684 -81.204330 0.004684 342.235809
14 342.235809 -0.000477 0.000238 0.004684 -81.204826 0.004684 342.235809
[L_Toe2_03]
12 420.210846 -0.000715 0.000000 179.993225 43.298767 -179.999161 420.210846
13 420.210846 -0.000715 0.000000 179.993225 43.179955 -179.999146 420.210846
14 420.210846 -0.000715 0.000000 179.993240 43.061138 -179.999130 420.210846
[L_Toe3_02]
12 329.270111 0.000954 0.000000 0.004675 -84.681168 0.004675 329.270111
13 329.270111 0.000954 0.000000 0.004675 -84.665421 0.004675 329.270111
14 329.270111 0.000954 0.000000 0.004675 -84.649651 0.004675 329.270111
[L_Toe3_03]
12 439.137451 -0.001907 0.000954 179.993484 36.059334 -179.998672 439.137451
13 439.137451 -0.001907 0.000954 179.993484 35.924168 -179.998657 439.137451
14 439.137451 -0.001907 0.000954 179.993500 35.788990 -179.998657 439.137451
[planeLockWeightLeft]
12 -0.000954 0.000238 -0.000305 -0.011826 -0.004376 0.005620 0.001029
13 -0.000954 0.000238 -0.000305 -0.011826 -0.004376 0.005620 0.001029
14 -0.000954 0.000238 -0.000305 -0.011826 -0.004376 0.005620 0.001029
[R_Leg01]
12 761.455627 -0.001907 -0.000358 137.405167 18.019747 115.655434 761.455688
13 761.455627 -0.001907 -0.000358 126.916977 5.385067 103.362991 761.455688
14 761.455627 -0.001907 -0.000358 125.204880 -5.268640 88.387268 761.455688
[R_Leg02]
12 1441.140625 0.000000 -0.000238 1.012926 -0.109415 -19.024347 1441.140625
13 1441.140625 0.000000 -0.000238 0.066292 0.165673 -59.889633 1441.140625
14 1441.140625 0.000000 -0.000238 -1.273029 -0.140330 -98.614838 1441.140625
[R_Leg03]
12 1686.963989 0.000954 0.001431 -0.042191 0.013746 98.728989 1686.963989
13 1686.963989 0.000954 0.001431 0.025235 -0.009744 117.370613 1686.963989
14 1686.963989 0.000954 0.001431 0.081894 -0.046780 132.415131 1686.963989
[R_Foot]
12 3041.560059 -30.531288 -11.204481 4.255133 10.570773 42.744900 3041.734131
13 3041.560059 -30.531288 -11.204481 4.299123 12.001242 43.612114 3041.734131
14 3041.560059 -30.531288 -11.204481 4.670852 11.898230 49.407654 3041.734131
[planeAlignerRight]
12 -0.635147 -812.270569 -0.364304 0.000000 -89.960434 -90.005180 812.270874
13 -0.635147 -812.270569 -0.364304 0.000000 -89.960434 -90.005180 812.270874
14 -0.635147 -812.270569 -0.364304 0.000000 -89.960434 -90.005180 812.270874
[R_Toe1_01]
12 -188.383347 -224.864899 21.052242 77.496262 2.556988 -171.487869 294.101532
13 -188.383347 -224.864899 21.052242 77.501556 2.583403 -171.436996 294.101532
14 -188.383347 -224.864899 21.052242 77.501556 2.583484 -171.437103 294.101532
[R_Toe2_01]
12 200.637817 -220.002121 -148.787384 -87.001610 41.720909 -47.417519 332.857574
13 200.637817 -220.002121 -148.787384 -87.001602 41.721313 -47.417374 332.857574
14 200.637817 -220.002121 -148.787384 -87.001587 41.721703 -47.417202 332.857574
[R_Toe3_01]
12 188.606735 -220.092957 191.126343 -74.715660 -14.659087 -63.952980 347.192566
13 188.606735 -220.092957 191.126343 -74.725410 -14.673591 -63.952347 347.192566
14 188.606735 -220.092957 191.126343 -74.735176 -14.688091 -63.951710 347.192566
[planeLockWeightRight]
12 -0.000477 0.000000 0.000000 -0.011823 -0.004379 -0.000027 0.000477
13 -0.000477 0.000000 0.000000 -0.011823 -0.004379 -0.000027 0.000477
14 -0.000477 0.000000 0.000000 -0.011823 -0.004379 -0.000027 0.000477
[R_Toe1_02]
12 413.762085 0.000477 -0.000119 0.001417 -21.816730 0.001417 413.762085
13 413.762085 0.000477 -0.000119 0.001417 -21.815701 0.001417 413.762085
14 413.762085 0.000477 -0.000119 0.001417 -21.814663 0.001417 413.762085
[R_Toe1_03]
12 464.317810 0.000000 0.001088 0.000896 29.025692 -0.003162 464.317810
13 464.317810 0.000000 0.001088 0.000896 29.015017 -0.003162 464.317810
14 464.317810 0.000000 0.001088 0.000897 29.004333 -0.003162 464.317810
[R_Toe2_02]
12 342.234741 -0.000954 0.000238 -0.002334 -78.667976 -0.002334 342.234741
13 342.234741 -0.000954 0.000238 -0.002334 -78.684586 -0.002334 342.234741
14 342.234741 -0.000954 0.000238 -0.002334 -78.701241 -0.002334 342.234741
[R_Toe2_03]
12 420.210846 0.000715 -0.000268 -179.994675 71.385918 -179.998215 420.210846
13 420.210846 0.000715 -0.000268 -179.994690 71.300629 -179.998230 420.210846
14 420.210846 0.000715 -0.000268 -179.994690 71.300629 -179.998230 420.210846
[R_Toe3_02]
12 329.270355 -0.000477 -0.000954 0.001175 -84.040596 0.001175 329.270355
13 329.270355 -0.000477 -0.000954 0.001175 -84.041191 0.001175 329.270355
14 329.270355 -0.000477 -0.000954 0.001175 -84.041779 0.001175 329.270355
[R_Toe3_03]
12 439.137939 0.000238 0.001431 -179.995316 57.596855 -179.988037 439.137939
13 439.137939 0.000238 0.001431 -179.995331 57.504646 -179.988052 439.137939
14 439.137939 0.000238 0.001431 -179.995331 57.504482 -179.988052 439.137939
[Rear_Leg02]
12 1162.777710 -0.029802 0.005960 19.345703 5.976177 -21.421930 1162.777710
13 1162.777710 -0.029802 0.005960 15.790027 12.908610 -43.412086 1162.777710
14 1162.777710 -0.029802 0.005960 10.743311 17.289534 -62.640587 1162.777710
[Rear_Leg03]
12 607.192505 -0.013351 -0.073195 -0.002035 0.007090 20.858870 607.192505
13 607.192505 -0.013351 -0.073195 0.003594 0.005784 35.503273 607.192505
14 607.192505 -0.013351 -0.073195 0.004103 0.005435 45.893070 607.192505
[Rear_Leg04]
12 995.874512 -0.020504 -0.011921 -0.018101 -0.003394 -0.685795 995.874573
13 995.874512 -0.020504 -0.011921 -0.024467 -0.010343 13.639443 995.874573
14 995.874512 -0.020504 -0.011921 -0.031515 -0.010961 27.429506 995.874573
[Rear_Foot]
12 3096.176270 -0.067472 -0.041425 38.169529 65.291695 -103.616982 3096.176270
13 3096.176270 -0.067472 -0.041425 35.485439 64.737221 -109.952110 3096.176270
14 3096.176270 -0.067472 -0.041425 32.743942 64.239220 -115.070534 3096.176270
[planeAlignerCenter]
12 0.350077 0.966311 -838.790894 0.000009 0.000003 -179.999985 838.791565
13 0.350077 0.966311 -838.790894 0.000009 0.000003 -179.999985 838.791565
14 0.350077 0.966311 -838.790894 0.000009 0.000003 -179.999985 838.791565
[Rear_Toe1_01]
12 0.653352 83.966492 -371.173737 -30.908041 25.918524 86.073593 380.553192
13 0.653352 83.966492 -371.173737 -30.751728 22.818939 86.598709 380.553192
14 0.653352 83.966492 -371.173737 -30.751724 22.818644 86.598579 380.553192
[Rear_Toe2_01]
12 178.200760 -294.826019 -362.060547 -7.860962 9.268620 -62.632618 499.765686
13 178.200760 -294.826019 -362.060547 -8.135447 -0.227825 -62.257679 499.765686
14 178.200760 -294.826019 -362.060547 -8.135508 -0.228067 -62.257668 499.765686
[Rear_Toe3_01]
12 -153.359680 -308.780914 -362.060852 4.068135 19.234186 -103.094498 499.952881
13 -153.359680 -308.780914 -362.060852 3.733874 13.522121 -102.730240 499.952881
14 -153.359680 -308.780914 -362.060852 3.733895 13.521873 -102.730278 499.952881
[planeLockWeightCenter]
12 -0.000062 0.000238 0.000000 -0.011814 -0.004373 -0.000015 0.000246
13 -0.000062 0.000238 0.000000 -0.011814 -0.004373 -0.000015 0.000246
14 -0.000062 0.000238 0.000000 -0.011814 -0.004373 -0.000015 0.000246
[Rear_Toe1_02]
12 379.707825 0.194073 0.000477 -0.006674 -31.378689 -0.006674 379.707855
13 379.707825 0.194073 0.000477 -0.006719 -30.029829 -0.006719 379.707855
14 379.707825 0.194073 0.000477 -0.006719 -30.029648 -0.006719 379.707855
[Rear_Toe1_03]
12 500.129700 0.165701 0.000119 -179.992310 78.900024 -179.995819 500.129761
13 500.129700 0.165701 0.000119 -179.994797 70.681084 -179.998352 500.129761
14 500.129700 0.165701 0.000119 -179.994797 70.680847 -179.998352 500.129761
[Rear_Toe2_02]
12 340.494507 0.000238 -0.000954 0.001447 -18.441168 0.001447 340.494507
13 340.494507 0.000238 -0.000954 0.001661 0.061007 0.001661 340.494507
14 340.494507 0.000238 -0.000954 0.001661 0.061178 0.001661 340.494507
[Rear_Toe2_03]
12 433.103577 0.000000 0.000238 -0.003150 14.466622 0.001273 433.103546
13 433.103577 0.000000 0.000238 -0.003297 -0.804493 0.001683 433.103546
14 433.103577 0.000000 0.000238 -0.003297 -0.804494 0.001683 433.103546
[Rear_Toe3_02]
12 340.494141 -0.000358 -0.000477 -0.002489 -47.954391 -0.002489 340.494171
13 340.494141 -0.000358 -0.000477 -0.002600 -36.670113 -0.002600 340.494171
14 340.494141 -0.000358 -0.000477 -0.002600 -36.670113 -0.002600 340.494171
[Rear_Toe3_03]
12 433.103577 0.001431 -0.000238 0.000496 42.126907 -0.003329 433.103546
13 433.103577 0.001431 -0.000238 0.006396 30.730230 -0.001649 433.103546
14 433.103577 0.001431 -0.000238 0.006396 30.730234 -0.001649 433.103546
[Back_Bone]
12 1312.175781 -701.934692 0.000954 16.542019 -1.813803 -57.020576 1488.125488
13 1312.175781 -701.934692 0.000954 16.834017 -5.640030 -62.862965 1488.125488
14 1312.175781 -701.934692 0.000954 17.187630 -9.679391 -69.904297 1488.125488
[Head]
12 1406.159424 809.709290 0.001431 -0.028225 -1.561806 5.821212 1622.625488
13 1406.159424 809.709290 0.001431 -0.336532 -1.557650 17.739716 1622.625488
14 1406.159424 809.709290 0.001431 -0.550852 -1.500711 29.066458 1622.625488
[Motor_Bone]
12 1158.364380 -417.834747 0.000477 4.282289 6.593641 -64.311050 1231.419434
13 1158.364380 -417.834747 0.000477 9.168404 -5.270962 -69.457657 1231.419434
14 1158.364380 -417.834747 0.000477 8.985047 -14.768248 -78.504822 1231.419434
[Ping_Mechanism]
12 1237.106934 -603.420349 -4.361115 0.000103 -0.000053 82.120995 1376.433350
13 1223.441162 -663.544006 5.002752 0.000103 -0.000053 82.120995 1391.805908
14 1221.192017 -641.717773 11.211704 0.000103 -0.000053 82.120995 1379.578613
[BN_LookIK]
12 193.241119 1380.371704 -0.002861 0.000000 89.965736 -31.038179 1393.832153
13 193.241119 1380.371704 -0.002861 0.000000 89.965736 -31.038179 1393.832153
14 193.241119 1380.371704 -0.002861 0.000000 89.965736 -31.038179 1393.832153
[bottomMouth]
12 -435.092926 615.759399 -0.000954 -0.000022 0.000016 73.527184 753.966492
13 -435.092926 615.759399 -0.000954 -0.000022 0.000016 73.527184 753.966492
14 -435.092926 615.759399 -0.000954 -0.000022 0.000016 73.527184 753.966492
[L_Mouth01]
12 554.440979 7.658243 838.222046 150.204178 23.759130 109.605339 1005.027161
13 554.440979 7.658243 838.222046 150.204178 23.759130 109.605339 1005.027161
14 554.440979 7.658243 838.222046 150.204178 23.759130 109.605339 1005.027161
[L_mouthFront]
12 551.629089 934.514771 339.150421 0.000081 2.804060 79.119301 1136.941284
13 551.629089 934.514771 339.150421 0.000081 2.804060 79.119301 1136.941284
14 551.629089 934.514771 339.150421 0.000081 2.804060 79.119301 1136.941284
[mouthGun]
12 55.332661 1627.420898 0.000000 0.000023 0.000009 -11.038128 1628.361328
13 55.332661 1627.420898 0.000000 0.000023 0.000009 -11.038128 1628.361328
14 55.332661 1627.420898 0.000000 0.000023 0.000009 -11.038128 1628.361328
[R_Mouth01]
12 554.442383 7.659197 -838.223938 29.795891 -23.759109 109.605331 1005.029541
13 554.442383 7.659197 -838.223938 29.795891 -23.759109 109.605331 1005.029541
14 554.442383 7.659197 -838.223938 29.795891 -23.759109 109.605331 1005.029541
[R_mouthFront]
12 551.629089 934.514282 -339.151367 0.000029 -2.803930 79.119133 1136.941162
13 551.629089 934.514282 -339.151367 0.000029 -2.803930 79.119133 1136.941162
14 551.629089 934.514282 -339.151367 0.000029 -2.803930 79.119133 1136.941162
[TopMouth]
12 461.269867 -56.106091 -0.008583 -0.000059 -0.000268 92.025169 464.669525
13 461.269867 -56.106091 -0.008583 -0.000059 -0.000268 92.025169 464.669525
14 461.269867 -56.106091 -0.008583 -0.000059 -0.000268 92.025169 464.669525
[weapon_bone]
12 -987.239868 1448.372803 0.001431 0.000000 89.965736 -31.038221 1752.833740
13 -987.239868 1448.372803 0.001431 0.000000 89.965736 -31.038221 1752.833740
14 -987.239868 1448.372803 0.001431 0.000000 89.965736 -31.038221 1752.833740
